# xmcd
#
# Track frame offsets:
#	150
#	16050
#	33542
#	57755
#	82865
#
# Disc length: 1335 seconds
#
# Revision: 1
# Processed by: cddbd v1.4PL0 Copyright (c) Steve Scherf et al.
# Submitted via: EasyCDDAExtractor 5.0.6
#
DISCID=2c053505
DTITLE=Various Artist - Northernblues Music
DYEAR=2001
DGENRE=Blues
TTITLE0=My Soul's In Louisiana-Otis Taylor
TTITLE1=Never Been Loved Before-Rita Chiarelli
TTITLE2=Defibrillatin'-JW Jones Blues Band
TTITLE3=The Woman I Love-The Sidemen
TTITLE4=Called My Baby Long Distance-Archie Edwards
EXTD=
EXTT0=
EXTT1=
EXTT2=
EXTT3=
EXTT4=
PLAYORDER=
